<svg width="34" height="28" viewBox="0 0 34 28" fill="none" xmlns="http://www.w3.org/2000/svg">
<path d="M13.0347 1.82C10.506 0.61269 6.9716 0.0212832 2.23965 0.000286551C1.79338 -0.00577652 1.35586 0.124355 0.985448 0.373328C0.681408 0.578836 0.432525 0.855906 0.260691 1.18017C0.0888566 1.50443 -0.000663748 1.86595 3.70512e-06 2.23293V22.2568C3.70512e-06 23.6104 0.963051 24.6315 2.23965 24.6315C7.21376 24.6315 12.2033 25.0962 15.1918 27.921C15.2327 27.9598 15.2841 27.9857 15.3396 27.9956C15.3951 28.0055 15.4523 27.9988 15.504 27.9764C15.5558 27.954 15.5998 27.917 15.6306 27.8698C15.6615 27.8226 15.6778 27.7674 15.6775 27.711V4.11704C15.6776 3.95785 15.6436 3.80049 15.5777 3.6556C15.5117 3.51071 15.4155 3.38166 15.2954 3.27717C14.6108 2.69195 13.8504 2.2018 13.0347 1.82Z" fill="#9F9F9F"/>
<path d="M32.6092 0.371197C32.2386 0.122844 31.8011 -0.00656051 31.355 0.000256102C26.6231 0.0212528 23.0887 0.60986 20.56 1.81997C19.7443 2.20107 18.9837 2.69026 18.2986 3.27434C18.1788 3.37901 18.0827 3.50811 18.017 3.65297C17.9512 3.79784 17.9171 3.9551 17.9172 4.11421V27.7096C17.9171 27.7637 17.9331 27.8167 17.9631 27.8619C17.993 27.907 18.0356 27.9423 18.0856 27.9633C18.1355 27.9843 18.1905 27.9901 18.2437 27.9799C18.297 27.9698 18.346 27.9441 18.3847 27.9062C20.1813 26.1215 23.3343 24.6294 31.3578 24.6301C31.9518 24.6301 32.5215 24.3941 32.9415 23.9741C33.3615 23.5541 33.5975 22.9844 33.5975 22.3904V2.2336C33.5983 1.8659 33.5086 1.50365 33.3362 1.17884C33.1639 0.85403 32.9142 0.576652 32.6092 0.371197Z" fill="#9F9F9F"/>
</svg>
