<svg width="107" height="87" viewBox="0 0 107 87" fill="none" xmlns="http://www.w3.org/2000/svg">
<path d="M103.086 27.4135C103.685 24.0506 102.91 20.5897 100.931 17.7922C98.9511 14.9948 95.9295 13.0898 92.5304 12.4965L89.3264 11.9373L89.8757 8.85645C90.1799 7.15061 89.1153 5.45508 87.4064 5.06893C86.9768 4.97266 86.532 4.96367 86.0989 5.04252C85.6657 5.12136 85.2532 5.28638 84.8865 5.52759C84.5197 5.7688 84.2062 6.08118 83.9651 6.44579C83.7239 6.8104 83.5601 7.21965 83.4835 7.64875L82.9183 10.8187L38.0615 2.98896L38.6109 -0.0918497C38.9151 -1.79769 37.8505 -3.49322 36.1415 -3.87936C35.712 -3.97563 35.2671 -3.98462 34.834 -3.90578C34.4008 -3.82694 33.9884 -3.66191 33.6216 -3.4207C33.2548 -3.17949 32.9413 -2.86712 32.7002 -2.50251C32.459 -2.1379 32.2952 -1.72864 32.2187 -1.29954L31.6534 1.87043L28.4493 1.31116C25.0503 0.717849 21.5522 1.48475 18.7246 3.44316C15.8971 5.40156 13.9717 8.39105 13.372 11.754L12.948 14.1314C12.9105 14.3416 12.959 14.5579 13.0827 14.7328C13.2064 14.9076 13.3953 15.0267 13.6077 15.0637L101.719 30.4436C101.932 30.4807 102.15 30.4328 102.327 30.3104C102.504 30.188 102.624 30.0011 102.662 29.791L103.086 27.4135Z" fill="white" fill-opacity="0.45"/>
<path d="M3.19691 68.8135C2.59722 72.1764 3.37237 75.6373 5.35183 78.4347C7.3313 81.2322 10.3529 83.1371 13.752 83.7305L77.8331 94.9158C81.2322 95.5091 84.7302 94.7422 87.5578 92.7838C90.3853 90.8254 92.3107 87.8359 92.9104 84.473L101.284 37.5179C101.312 37.3602 101.275 37.198 101.183 37.0669C101.09 36.9357 100.948 36.8464 100.789 36.8186L12.2769 21.3688C12.1176 21.341 11.9536 21.377 11.8211 21.4688C11.6885 21.5606 11.5983 21.7007 11.5701 21.8583L3.19691 68.8135ZM79.4327 39.6282C80.3833 39.7941 81.2628 40.2352 81.96 40.8956C82.6571 41.556 83.1407 42.4062 83.3495 43.3385C83.5584 44.2709 83.4831 45.2436 83.1331 46.1336C82.7832 47.0236 82.1744 47.7909 81.3837 48.3386C80.5929 48.8863 79.6558 49.1896 78.6908 49.2104C77.7258 49.2311 76.7763 48.9683 75.9622 48.4551C75.1482 47.9419 74.5063 47.2015 74.1176 46.3273C73.729 45.4532 73.611 44.4847 73.7787 43.5442C74.0036 42.2831 74.7257 41.1621 75.786 40.4277C76.8463 39.6933 78.1581 39.4057 79.4327 39.6282ZM76.6063 55.478C77.5569 55.6439 78.4364 56.085 79.1335 56.7455C79.8307 57.4059 80.3143 58.256 80.5231 59.1884C80.732 60.1207 80.6566 61.0934 80.3067 61.9834C79.9568 62.8734 79.348 63.6408 78.5572 64.1884C77.7665 64.7361 76.8294 65.0395 75.8644 65.0602C74.8994 65.081 73.9498 64.8181 73.1358 64.3049C72.3218 63.7918 71.6799 63.0513 71.2912 62.1772C70.9026 61.303 70.7846 60.3345 70.9523 59.3941C71.1772 58.133 71.8992 57.0119 72.9596 56.2775C74.0199 55.5431 75.3317 55.2555 76.6063 55.478ZM63.4125 36.8318C64.363 36.9978 65.2425 37.4388 65.9397 38.0993C66.6369 38.7597 67.1205 39.6099 67.3293 40.5422C67.5381 41.4745 67.4628 42.4472 67.1129 43.3372C66.7629 44.2272 66.1541 44.9946 65.3634 45.5423C64.5727 46.0899 63.6355 46.3933 62.6705 46.414C61.7055 46.4348 60.756 46.1719 59.942 45.6588C59.1279 45.1456 58.486 44.4051 58.0974 43.531C57.7087 42.6569 57.5908 41.6883 57.7585 40.7479C57.9833 39.4868 58.7054 38.3657 59.7657 37.6313C60.826 36.8969 62.1378 36.6094 63.4125 36.8318ZM60.5861 52.6817C61.5366 52.8476 62.4161 53.2887 63.1133 53.9491C63.8105 54.6095 64.294 55.4597 64.5029 56.392C64.7117 57.3244 64.6364 58.2971 64.2865 59.1871C63.9365 60.0771 63.3277 60.8444 62.537 61.3921C61.7463 61.9398 60.8091 62.2431 59.8441 62.2639C58.8791 62.2846 57.9296 62.0218 57.1156 61.5086C56.3015 60.9954 55.6596 60.255 55.2709 59.3808C54.8823 58.5067 54.7644 57.5382 54.9321 56.5977C55.1569 55.3366 55.879 54.2156 56.9393 53.4812C57.9996 52.7468 59.3114 52.4592 60.5861 52.6817ZM57.7596 68.5315C58.7102 68.6974 59.5897 69.1385 60.2869 69.799C60.9841 70.4594 61.4676 71.3095 61.6765 72.2419C61.8853 73.1742 61.81 74.1469 61.46 75.0369C61.1101 75.9269 60.5013 76.6943 59.7106 77.2419C58.9198 77.7896 57.9827 78.093 57.0177 78.1137C56.0527 78.1345 55.1032 77.8716 54.2891 77.3584C53.4751 76.8453 52.8332 76.1048 52.4445 75.2307C52.0559 74.3565 51.9379 73.388 52.1056 72.4476C52.3305 71.1865 53.0526 70.0654 54.1129 69.331C55.1732 68.5966 56.485 68.309 57.7596 68.5315ZM44.5658 49.8853C45.5163 50.0513 46.3958 50.4923 47.093 51.1528C47.7902 51.8132 48.2738 52.6634 48.4826 53.5957C48.6914 54.5281 48.6161 55.5007 48.2662 56.3907C47.9163 57.2807 47.3074 58.0481 46.5167 58.5957C45.726 59.1434 44.7889 59.4468 43.8239 59.4675C42.8589 59.4883 41.9093 59.2254 41.0953 58.7123C40.2813 58.1991 39.6393 57.4586 39.2507 56.5845C38.862 55.7104 38.7441 54.7418 38.9118 53.8014C39.1367 52.5403 39.8587 51.4192 40.919 50.6848C41.9794 49.9504 43.2911 49.6629 44.5658 49.8853ZM41.7394 65.7352C42.6899 65.9011 43.5694 66.3422 44.2666 67.0026C44.9638 67.663 45.4474 68.5132 45.6562 69.4455C45.865 70.3779 45.7897 71.3506 45.4398 72.2406C45.0898 73.1306 44.481 73.8979 43.6903 74.4456C42.8996 74.9933 41.9625 75.2966 40.9974 75.3174C40.0324 75.3381 39.0829 75.0753 38.2689 74.5621C37.4549 74.0489 36.8129 73.3085 36.4243 72.4343C36.0356 71.5602 35.9177 70.5917 36.0854 69.6512C36.3103 68.3901 37.0323 67.2691 38.0926 66.5347C39.1529 65.8003 40.4647 65.5127 41.7394 65.7352ZM28.5455 47.089C29.4961 47.2549 30.3755 47.696 31.0727 48.3564C31.7699 49.0169 32.2535 49.867 32.4623 50.7994C32.6711 51.7317 32.5958 52.7044 32.2459 53.5944C31.896 54.4844 31.2872 55.2517 30.4964 55.7994C29.7057 56.3471 28.7686 56.6505 27.8036 56.6712C26.8386 56.6919 25.889 56.4291 25.075 55.9159C24.261 55.4027 23.6191 54.6623 23.2304 53.7881C22.8417 52.914 22.7238 51.9455 22.8915 51.005C23.1164 49.744 23.8384 48.6229 24.8988 47.8885C25.9591 47.1541 27.2709 46.8665 28.5455 47.089ZM25.7191 62.9388C26.6697 63.1048 27.5491 63.5458 28.2463 64.2063C28.9435 64.8667 29.4271 65.7169 29.6359 66.6492C29.8447 67.5815 29.7694 68.5542 29.4195 69.4442C29.0696 70.3342 28.4608 71.1016 27.67 71.6492C26.8793 72.1969 25.9422 72.5003 24.9772 72.521C24.0122 72.5418 23.0626 72.2789 22.2486 71.7658C21.4346 71.2526 20.7927 70.5121 20.404 69.638C20.0153 68.7639 19.8974 67.7953 20.0651 66.8549C20.29 65.5938 21.012 64.4727 22.0723 63.7383C23.1327 63.0039 24.4445 62.7164 25.7191 62.9388Z" fill="white" fill-opacity="0.45"/>
</svg>
